<svg width="49" height="49" viewBox="0 0 49 49" fill="none" xmlns="http://www.w3.org/2000/svg">
<path fill-rule="evenodd" clip-rule="evenodd" d="M38.5385 21.1083C38.5385 22.8751 37.1058 24.3077 35.3391 24.3077H12.1994C10.4326 24.3077 9 22.8751 9 21.1083V13.1994C9 11.4326 10.4326 10 12.1994 10H35.3395C37.1063 10 38.5389 11.4326 38.5389 13.1994L38.5385 21.1083ZM35.3391 11.8462C36.0863 11.8462 36.6923 12.4522 36.6923 13.1994L36.6928 21.1088C36.6928 21.856 36.0868 22.462 35.3395 22.462H12.1994C11.4522 22.462 10.8462 21.856 10.8462 21.1088V13.1994C10.8462 12.4522 11.4522 11.8462 12.1994 11.8462H35.3391Z" fill="black"/>
<path d="M36.6923 13.1994C36.6923 12.4522 36.0863 11.8462 35.3391 11.8462H12.1994C11.4522 11.8462 10.8462 12.4522 10.8462 13.1994V21.1088C10.8462 21.856 11.4522 22.462 12.1994 22.462H35.3395C36.0868 22.462 36.6928 21.856 36.6928 21.1088L36.6923 13.1994Z" fill="white"/>
<path d="M12.693 17.3847C12.4378 17.3847 12.2314 17.1784 12.2314 16.9232V16.0915C12.2314 14.9118 12.8065 13.6924 14.0591 13.6924H17.1348C17.3901 13.6924 17.5964 13.8987 17.5964 14.1539C17.5964 14.4092 17.3901 14.6155 17.1348 14.6155H14.0591C13.3844 14.6155 13.1545 15.3659 13.1545 16.0915V16.9232C13.1545 17.1784 12.9478 17.3847 12.693 17.3847Z" fill="white"/>
<path d="M12.3209 18.9679C12.2009 18.9679 12.0805 18.9171 11.9932 18.834C11.9055 18.7468 11.8594 18.6263 11.8594 18.5063C11.8594 18.3863 11.9055 18.2663 11.9932 18.1786C12.1686 18.0033 12.4732 18.0079 12.644 18.1786C12.7312 18.2663 12.7825 18.3863 12.7825 18.5063C12.7825 18.6263 12.7317 18.7468 12.6486 18.8294C12.5563 18.9166 12.4409 18.9679 12.3209 18.9679Z" fill="white"/>
<path d="M28.8462 36.8007C28.8462 38.5675 27.4135 40.0001 25.6468 40.0001H12.1994C10.4326 40.0001 9 38.5675 9 36.8007V28.8918C9 27.125 10.4326 25.6924 12.1994 25.6924H25.6472C27.414 25.6924 28.8466 27.125 28.8466 28.8918L28.8462 36.8007ZM27 28.8918C27 28.1445 26.394 27.5385 25.6468 27.5385H12.1994C11.4522 27.5385 10.8462 28.1445 10.8462 28.8918V36.8012C10.8462 37.5484 11.4522 38.1544 12.1994 38.1544H25.6472C26.3945 38.1544 27.0005 37.5484 27.0005 36.8012L27 28.8918Z" fill="black"/>
<path d="M27 28.8918C27 28.1445 26.394 27.5385 25.6468 27.5385H12.1994C11.4522 27.5385 10.8462 28.1445 10.8462 28.8918V36.8012C10.8462 37.5484 11.4522 38.1544 12.1994 38.1544H25.6472C26.3945 38.1544 27.0005 37.5484 27.0005 36.8012L27 28.8918Z" fill="white"/>
<path d="M39.0002 36.8007C39.0002 38.5675 37.5675 40.0001 35.8008 40.0001H33.4299C31.6631 40.0001 30.2305 38.5675 30.2305 36.8007V28.8918C30.2305 27.125 31.6631 25.6924 33.4299 25.6924H35.8008C37.5675 25.6924 39.0002 27.125 39.0002 28.8918V36.8007ZM37.154 28.8918C37.154 28.1445 36.548 27.5385 35.8008 27.5385H33.4299C32.6826 27.5385 32.0766 28.1445 32.0766 28.8918V36.8012C32.0766 37.5484 32.6826 38.1544 33.4299 38.1544H35.8008C36.548 38.1544 37.154 37.5484 37.154 36.8012V28.8918Z" fill="black"/>
<path d="M37.154 28.8918C37.154 28.1445 36.548 27.5385 35.8008 27.5385H33.4299C32.6826 27.5385 32.0766 28.1445 32.0766 28.8918V36.8012C32.0766 37.5484 32.6826 38.1544 33.4299 38.1544H35.8008C36.548 38.1544 37.154 37.5484 37.154 36.8012V28.8918Z" fill="url(#paint0_linear_713_846)"/>
<rect x="13.5059" y="37.2422" width="10.4939" height="2.62348" rx="1.31174" fill="black"/>
<line x1="11.7568" y1="29.7471" x2="24.8742" y2="29.7471" stroke="#15A34A"/>
<line x1="21.376" y1="14.0059" x2="34.4934" y2="14.0059" stroke="#15A34A"/>
<line x1="21.376" y1="16.6289" x2="34.4934" y2="16.6289" stroke="#15A34A"/>
<line x1="21.376" y1="19.2529" x2="34.4934" y2="19.2529" stroke="#15A34A"/>
<line x1="19.627" y1="32.3701" x2="25.7484" y2="32.3701" stroke="#15A34A"/>
<circle cx="15.6921" cy="16.6921" r="2.93522" fill="white" stroke="#15A34A" stroke-width="2"/>
<defs>
<linearGradient id="paint0_linear_713_846" x1="34.6153" y1="25.6924" x2="34.6153" y2="40.0001" gradientUnits="userSpaceOnUse">
<stop offset="0.14" stop-color="white"/>
<stop offset="0.645" stop-color="#15A34A"/>
</linearGradient>
</defs>
</svg>
