<svg width="139" height="139" viewBox="0 0 139 139" fill="none" xmlns="http://www.w3.org/2000/svg">
<rect width="139" height="139" fill="white"/>
<rect x="19" y="19" width="70.3703" height="21.3117" rx="2" fill="#0A0E17"/>
<rect x="78.2598" y="45.2314" width="40.7407" height="21.3117" rx="2" fill="#0A0E17"/>
<rect x="19" y="45.2314" width="53.7036" height="21.3117" rx="2" fill="#0A0E17"/>
<rect x="19" y="71.46" width="99.9998" height="21.3117" rx="2" fill="#0A0E17"/>
<rect x="19" y="97.6885" width="24.074" height="21.3117" rx="2" fill="#15A34A"/>
<rect x="94.9258" y="19" width="24.074" height="21.3117" rx="2" fill="#15A34A"/>
<rect x="48.6299" y="97.6885" width="70.3703" height="21.3117" rx="2" fill="#0A0E17"/>
<g style="mix-blend-mode:lighten">
<path d="M91.1264 52.8156C91.1264 52.8156 90.4011 52.3889 88.9504 51.5356C87.4997 50.6822 85.5797 49.7436 83.1904 48.7196C80.8011 47.6102 78.1984 46.6289 75.3824 45.7756C72.5664 44.9222 69.793 44.4956 67.0624 44.4956C64.9291 44.4956 63.1797 44.8369 61.8144 45.5196C60.4491 46.2022 59.7664 47.3542 59.7664 48.9756C59.7664 50.5116 60.4491 51.7489 61.8144 52.6876C63.1797 53.6262 65.0997 54.4796 67.5744 55.2476C70.1344 56.0156 73.1637 56.9542 76.6624 58.0636C82.2944 59.7702 87.1584 61.7329 91.2544 63.9516C95.3504 66.1702 98.5077 69.0289 100.726 72.5276C102.945 75.9409 104.054 80.5062 104.054 86.2236C104.054 91.6849 103.073 96.2929 101.11 100.048C99.1477 103.717 96.5024 106.661 93.1744 108.88C89.8464 111.098 86.1344 112.72 82.0384 113.744C77.9424 114.682 73.761 115.152 69.4944 115.152C65.1424 115.152 60.5771 114.725 55.7984 113.872C51.1051 112.933 46.5397 111.696 42.1024 110.16C37.665 108.538 33.6117 106.661 29.9424 104.528L40.6944 82.6396C40.6944 82.6396 41.5477 83.1516 43.2544 84.1756C44.9611 85.1996 47.2224 86.3516 50.0384 87.6316C52.8544 88.9116 55.9691 90.0636 59.3824 91.0876C62.8811 92.1116 66.3797 92.6236 69.8784 92.6236C72.6091 92.6236 74.4864 92.2822 75.5104 91.5996C76.6197 90.8316 77.1744 89.8502 77.1744 88.6556C77.1744 86.8636 76.2357 85.4982 74.3584 84.5596C72.4811 83.5356 70.0064 82.5969 66.9344 81.7436C63.9477 80.8049 60.6197 79.7382 56.9504 78.5436C51.6597 76.7516 47.3077 74.7462 43.8944 72.5276C40.4811 70.2236 37.9637 67.5356 36.3424 64.4636C34.721 61.3062 33.9104 57.5089 33.9104 53.0716C33.9104 46.3302 35.4891 40.6982 38.6464 36.1756C41.8037 31.6529 45.9424 28.2396 51.0624 25.9356C56.2677 23.5462 61.857 22.3516 67.8304 22.3516C72.2677 22.3516 76.5344 22.9062 80.6304 24.0156C84.8117 25.0396 88.6944 26.3196 92.2784 27.8556C95.9477 29.3916 99.1477 30.8422 101.878 32.2076L91.1264 52.8156Z" fill="#15A34A"/>
</g>
</svg>
