<svg width="67" height="53" viewBox="0 0 67 53" fill="none" xmlns="http://www.w3.org/2000/svg">
<g clip-path="url(#clip0_721_836)">
<path d="M66.6436 10.0312H5.42131C-2.52079 14.0345 4.23806 21.5141 4.23806 21.5141C4.23806 21.5141 -2.09183 27.5017 3.91377 32.9178C1.73077 36.897 0.481942 39.505 2.4839 42.8718L35.659 51.9664L66.6435 44.2608L66.6436 10.0312Z" fill="white"/>
<path d="M5.30176 9.76139L35.6035 1.53809L65.5269 9.86275L65.5432 9.9237L35.6035 18.2485L5.30176 9.76139Z" fill="#15A34A"/>
<path d="M7.71387 10.2217L35.603 18.2483" stroke="black" stroke-width="2" stroke-miterlimit="10" stroke-linecap="round" stroke-linejoin="round"/>
<path d="M35.6035 29.0371L3.59277 20.3564" stroke="black" stroke-width="2" stroke-miterlimit="10" stroke-linecap="round" stroke-linejoin="round"/>
<path d="M35.6035 1.53809L65.5269 9.86275" stroke="black" stroke-width="2" stroke-miterlimit="10" stroke-linecap="round" stroke-linejoin="round"/>
<path d="M65.5432 9.92383L35.6035 18.2486" stroke="black" stroke-width="2" stroke-miterlimit="10" stroke-linecap="round" stroke-linejoin="round"/>
<path d="M35.6035 1.53809L5.30176 9.76139" stroke="black" stroke-width="2" stroke-miterlimit="10" stroke-linecap="round" stroke-linejoin="round"/>
<path d="M65.5432 20.7129L35.6035 29.0376" stroke="black" stroke-width="2" stroke-miterlimit="10" stroke-linecap="round" stroke-linejoin="round"/>
<path d="M4.41996 20.5751C2.04523 19.8421 0.816339 16.8842 1.67516 13.9681C2.53399 11.052 5.15521 9.28219 7.52993 10.0151" stroke="black" stroke-width="2" stroke-miterlimit="10" stroke-linecap="round" stroke-linejoin="round"/>
<path d="M35.6035 40.5009L3.59277 31.8203" stroke="black" stroke-width="2" stroke-miterlimit="10" stroke-linecap="round" stroke-linejoin="round"/>
<path d="M65.5432 32.1768L35.6035 40.5014" stroke="black" stroke-width="2" stroke-miterlimit="10" stroke-linecap="round" stroke-linejoin="round"/>
<path d="M4.41996 32.0389C2.04523 31.306 0.816339 28.3481 1.67516 25.432C2.53399 22.5159 5.15521 20.7461 7.52993 21.479" stroke="black" stroke-width="2" stroke-miterlimit="10" stroke-linecap="round" stroke-linejoin="round"/>
<path d="M35.6591 51.9667L3.64844 43.2861" stroke="black" stroke-width="2" stroke-miterlimit="10" stroke-linecap="round" stroke-linejoin="round"/>
<path d="M65.5988 43.6426L35.6592 51.9672" stroke="black" stroke-width="2" stroke-miterlimit="10" stroke-linecap="round" stroke-linejoin="round"/>
<path d="M4.47562 43.5038C2.1009 42.7708 0.872003 39.8129 1.73083 36.8968C2.58965 33.9807 5.21088 32.2109 7.5856 32.9438" stroke="black" stroke-width="2" stroke-miterlimit="10" stroke-linecap="round" stroke-linejoin="round"/>
</g>
<defs>
<clipPath id="clip0_721_836">
<rect width="67" height="53" fill="white"/>
</clipPath>
</defs>
</svg>
