<svg width="53" height="53" viewBox="0 0 53 53" fill="none" xmlns="http://www.w3.org/2000/svg">
<g clip-path="url(#clip0_721_836)">
<path d="M52.7178 10.0312H4.28827C-1.99429 14.0345 3.35227 21.5141 3.35227 21.5141C3.35227 21.5141 -1.65497 27.5017 3.09573 32.9178C1.36888 36.897 0.381005 39.505 1.96464 42.8718L28.2077 51.9664L52.7177 44.2608L52.7178 10.0312Z" fill="white"/>
<path d="M4.19336 9.76139L28.1634 1.53809L51.8341 9.86275L51.847 9.9237L28.1634 18.2485L4.19336 9.76139Z" fill="#15A34A"/>
<path d="M6.10254 10.2217L28.1641 18.2483" stroke="black" stroke-width="2" stroke-miterlimit="10" stroke-linecap="round" stroke-linejoin="round"/>
<path d="M28.1637 29.0371L2.8418 20.3564" stroke="black" stroke-width="2" stroke-miterlimit="10" stroke-linecap="round" stroke-linejoin="round"/>
<path d="M28.1641 1.53809L51.8348 9.86275" stroke="black" stroke-width="2" stroke-miterlimit="10" stroke-linecap="round" stroke-linejoin="round"/>
<path d="M51.8477 9.92383L28.1641 18.2486" stroke="black" stroke-width="2" stroke-miterlimit="10" stroke-linecap="round" stroke-linejoin="round"/>
<path d="M28.1634 1.53809L4.19336 9.76139" stroke="black" stroke-width="2" stroke-miterlimit="10" stroke-linecap="round" stroke-linejoin="round"/>
<path d="M51.8477 20.7129L28.1641 29.0376" stroke="black" stroke-width="2" stroke-miterlimit="10" stroke-linecap="round" stroke-linejoin="round"/>
<path d="M3.49624 20.5751C1.61773 19.8421 0.645615 16.8842 1.32498 13.9681C2.00435 11.052 4.07786 9.28219 5.95637 10.0151" stroke="black" stroke-width="2" stroke-miterlimit="10" stroke-linecap="round" stroke-linejoin="round"/>
<path d="M28.1637 40.5009L2.8418 31.8203" stroke="black" stroke-width="2" stroke-miterlimit="10" stroke-linecap="round" stroke-linejoin="round"/>
<path d="M51.8477 32.1768L28.1641 40.5014" stroke="black" stroke-width="2" stroke-miterlimit="10" stroke-linecap="round" stroke-linejoin="round"/>
<path d="M3.49624 32.0389C1.61773 31.306 0.645615 28.3481 1.32498 25.432C2.00435 22.5159 4.07786 20.7461 5.95637 21.479" stroke="black" stroke-width="2" stroke-miterlimit="10" stroke-linecap="round" stroke-linejoin="round"/>
<path d="M28.2076 51.9667L2.88574 43.2861" stroke="black" stroke-width="2" stroke-miterlimit="10" stroke-linecap="round" stroke-linejoin="round"/>
<path d="M51.8916 43.6426L28.208 51.9672" stroke="black" stroke-width="2" stroke-miterlimit="10" stroke-linecap="round" stroke-linejoin="round"/>
<path d="M3.54018 43.5038C1.66167 42.7708 0.68956 39.8129 1.36893 36.8968C2.0483 33.9807 4.1218 32.2109 6.00031 32.9438" stroke="black" stroke-width="2" stroke-miterlimit="10" stroke-linecap="round" stroke-linejoin="round"/>
</g>
<defs>
<clipPath id="clip0_721_836">
<rect width="53" height="53" fill="white"/>
</clipPath>
</defs>
</svg>
