<svg width="139" height="139" viewBox="0 0 139 139" fill="none" xmlns="http://www.w3.org/2000/svg">
<g clip-path="url(#clip0_787_833)">
<rect width="139" height="139" rx="5" fill="#0A0E17"/>
<rect width="97.8142" height="29.6233" rx="2" fill="white"/>
<rect x="82.3711" y="36.4619" width="56.6293" height="29.6233" rx="2" fill="white"/>
<rect y="36.4619" width="74.6477" height="29.6233" rx="2" fill="white"/>
<rect y="72.9189" width="138.999" height="29.6233" rx="2" fill="white"/>
<rect y="109.377" width="33.4628" height="29.6233" rx="2" fill="#15A34A"/>
<rect x="105.536" width="33.4628" height="29.6233" rx="2" fill="#15A34A"/>
<rect x="41.1855" y="109.377" width="97.8142" height="29.6233" rx="2" fill="white"/>
<g style="mix-blend-mode:darken">
<path d="M100.255 47.0032C100.255 47.0032 99.2471 46.4101 97.2307 45.224C95.2143 44.0378 92.5455 42.7331 89.2243 41.3097C85.9032 39.7677 82.2855 38.4037 78.3713 37.2176C74.457 36.0314 70.6021 35.4384 66.8065 35.4384C63.8412 35.4384 61.4096 35.9128 59.5118 36.8617C57.614 37.8106 56.6651 39.4119 56.6651 41.6656C56.6651 43.8006 57.614 45.5205 59.5118 46.8252C61.4096 48.13 64.0784 49.3161 67.5182 50.3836C71.0766 51.4512 75.2873 52.7559 80.1505 54.2979C87.9789 56.6702 94.7398 59.3983 100.433 62.4822C106.127 65.5662 110.515 69.5397 113.599 74.4028C116.683 79.1474 118.225 85.4932 118.225 93.4403C118.225 101.032 116.861 107.437 114.133 112.656C111.405 117.756 107.728 121.848 103.102 124.932C98.4761 128.016 93.3165 130.27 87.6231 131.693C81.9296 132.998 76.1176 133.65 70.187 133.65C64.1377 133.65 57.792 133.057 51.1496 131.871C44.6259 130.566 38.2801 128.846 32.1123 126.711C25.9444 124.458 20.3103 121.848 15.21 118.883L30.1552 88.4585C30.1552 88.4585 31.3413 89.1702 33.7136 90.5936C36.0858 92.0169 39.229 93.6182 43.1433 95.3974C47.0575 97.1766 51.3869 98.7779 56.1314 100.201C60.9945 101.625 65.8576 102.336 70.7207 102.336C74.5163 102.336 77.1258 101.862 78.5492 100.913C80.0911 99.8454 80.8621 98.4813 80.8621 96.8208C80.8621 94.3299 79.5574 92.4321 76.9479 91.1273C74.3384 89.704 70.8987 88.3992 66.6286 87.2131C62.4772 85.9083 57.8513 84.4257 52.7509 82.7651C45.3969 80.2742 39.3477 77.4868 34.6032 74.4028C29.8586 71.2003 26.3596 67.464 24.1059 63.1939C21.8523 58.8052 20.7255 53.5269 20.7255 47.359C20.7255 37.9886 22.9198 30.1601 27.3085 23.8736C31.6971 17.5871 37.4499 12.8425 44.5666 9.63996C51.802 6.31879 59.5711 4.6582 67.874 4.6582C74.0419 4.6582 79.9725 5.42919 85.6659 6.97117C91.478 8.39452 96.8749 10.1737 101.857 12.3088C106.957 14.4438 111.405 16.4602 115.201 18.358L100.255 47.0032Z" fill="#15A34A"/>
</g>
</g>
<defs>
<clipPath id="clip0_787_833">
<rect width="139" height="139" rx="5" fill="white"/>
</clipPath>
</defs>
</svg>
