<svg width="122" height="114" viewBox="0 0 122 114" fill="none" xmlns="http://www.w3.org/2000/svg">
<g filter="url(#filter0_d_765_908)">
<path d="M100.9 0.55574L105 3.74479L105 53.1181L59.6691 65.4785L55.5 64.1357L55.5 39.5L55.5 14.8666L100.9 0.55574ZM58.2683 66.078L59.1176 66.3515L59.089 66.6251L58.2683 66.078Z" fill="#0A0E17" stroke="#0A0E17"/>
<path d="M105.25 53.3148L59.7412 67.1626L59.7412 17.6852L105.25 3.83739L105.25 53.3148Z" fill="white" stroke="#0A0E17" stroke-width="0.5"/>
</g>
<g filter="url(#filter1_d_765_908)">
<path d="M66.6567 38.9731L112.425 25.543L116 27.7771L116 78.1181L70.6691 90.4785L66.5011 89.1361L66.5784 64.052L66.5784 64.0519C66.6171 56.7146 66.6558 49.3764 66.6567 38.9731ZM70.1176 91.3515L70.089 91.6251L69.2683 91.078L70.1176 91.3515Z" fill="#0A0E17" stroke="#0A0E17"/>
<path d="M116 78.1295L70.9912 91.8252L70.9912 42.0776L116 28.6706L116 78.1295Z" fill="#15A34A" stroke="#0A0E17"/>
</g>
<path d="M0.656723 31.9731L46.4254 18.543L50 20.7771L50 71.1181L4.66906 83.4785L0.501123 82.1361L0.578363 57.052L0.578363 57.0519C0.617086 49.7146 0.655814 42.3764 0.656723 31.9731ZM4.11764 84.3515L4.08897 84.6251L3.26832 84.078L4.11764 84.3515Z" fill="#0A0E17" stroke="#0A0E17"/>
<path d="M50 71.1295L4.99121 84.8252L4.99121 35.0776L50 21.6706L50 71.1295Z" fill="#15A34A" stroke="#0A0E17"/>
<g filter="url(#filter2_d_765_908)">
<path d="M11.6567 59.9731L57.4254 46.543L61 48.7771L61 99.1181L15.6691 111.479L11.5011 110.136L11.5784 85.052L11.5784 85.0519C11.6171 77.7146 11.6558 70.3764 11.6567 59.9731ZM15.1176 112.352L15.089 112.625L14.2683 112.078L15.1176 112.352Z" fill="#0A0E17" stroke="#0A0E17"/>
<path d="M61 99.1295L15.9912 112.825L15.9912 63.0776L61 49.6706L61 99.1295Z" fill="white" stroke="#0A0E17"/>
</g>
<defs>
<filter id="filter0_d_765_908" x="51" y="0" width="63.1572" height="75.5" filterUnits="userSpaceOnUse" color-interpolation-filters="sRGB">
<feFlood flood-opacity="0" result="BackgroundImageFix"/>
<feColorMatrix in="SourceAlpha" type="matrix" values="0 0 0 0 0 0 0 0 0 0 0 0 0 0 0 0 0 0 127 0" result="hardAlpha"/>
<feOffset dy="4"/>
<feGaussianBlur stdDeviation="2"/>
<feComposite in2="hardAlpha" operator="out"/>
<feColorMatrix type="matrix" values="0 0 0 0 0 0 0 0 0 0 0 0 0 0 0 0 0 0 0.25 0"/>
<feBlend mode="normal" in2="BackgroundImageFix" result="effect1_dropShadow_765_908"/>
<feBlend mode="normal" in="SourceGraphic" in2="effect1_dropShadow_765_908" result="shape"/>
</filter>
<filter id="filter1_d_765_908" x="61.5" y="21.5" width="59.6572" height="71" filterUnits="userSpaceOnUse" color-interpolation-filters="sRGB">
<feFlood flood-opacity="0" result="BackgroundImageFix"/>
<feColorMatrix in="SourceAlpha" type="matrix" values="0 0 0 0 0 0 0 0 0 0 0 0 0 0 0 0 0 0 127 0" result="hardAlpha"/>
<feOffset dx="-3" dy="-2"/>
<feGaussianBlur stdDeviation="0.75"/>
<feComposite in2="hardAlpha" operator="out"/>
<feColorMatrix type="matrix" values="0 0 0 0 0 0 0 0 0 0 0 0 0 0 0 0 0 0 0.25 0"/>
<feBlend mode="normal" in2="BackgroundImageFix" result="effect1_dropShadow_765_908"/>
<feBlend mode="normal" in="SourceGraphic" in2="effect1_dropShadow_765_908" result="shape"/>
</filter>
<filter id="filter2_d_765_908" x="6" y="39" width="60.1572" height="74.5" filterUnits="userSpaceOnUse" color-interpolation-filters="sRGB">
<feFlood flood-opacity="0" result="BackgroundImageFix"/>
<feColorMatrix in="SourceAlpha" type="matrix" values="0 0 0 0 0 0 0 0 0 0 0 0 0 0 0 0 0 0 127 0" result="hardAlpha"/>
<feOffset dx="-4" dy="-6"/>
<feGaussianBlur stdDeviation="0.5"/>
<feComposite in2="hardAlpha" operator="out"/>
<feColorMatrix type="matrix" values="0 0 0 0 0 0 0 0 0 0 0 0 0 0 0 0 0 0 0.25 0"/>
<feBlend mode="normal" in2="BackgroundImageFix" result="effect1_dropShadow_765_908"/>
<feBlend mode="normal" in="SourceGraphic" in2="effect1_dropShadow_765_908" result="shape"/>
</filter>
</defs>
</svg>
