<svg width="400" height="52" viewBox="0 0 400 52" fill="none" xmlns="http://www.w3.org/2000/svg">
<path d="M2.06445 5.48321C24.1903 5.48321 46.3943 9.06046 68.4381 10.7104C97.4191 12.8797 126.622 12.0476 155.66 12.0476C207.819 12.0476 259.92 11.4714 312.051 9.79872C331.337 9.17992 351.041 8.53768 370.159 5.72634C377.376 4.66495 384.634 2.76413 391.918 2.26178C393.738 2.13632 399.208 2.0797 397.389 2.201C385.471 2.9955 374.094 7.11543 362.257 8.5223C295.931 16.4052 227.857 15.2075 161.191 15.3299C132.32 15.3828 103.448 15.3299 74.577 15.3299C65.5458 15.3299 50.8789 12.981 42.1196 16.4847C41.5675 16.7055 52.465 18.6026 53.2427 18.6121C78.5935 18.9212 103.923 19.5877 129.281 19.7669C213.913 20.365 298.965 19.121 383.53 22.7452C386.238 22.8612 402.154 24.0824 390.642 24.0824C370.888 24.0824 351.134 24.0824 331.38 24.0824C263.241 24.0824 195.886 27.746 128.004 32.7742C127.486 32.8126 113.133 34.3048 119.008 35.2663C128.297 36.7863 137.87 36.0517 147.211 35.5702C159.363 34.9438 171.932 35.4179 183.923 33.0781C187.521 32.376 176.953 35.5279 173.834 37.4544C172.843 38.0664 166.047 41.2745 167.512 43.2894C168.672 44.8844 171.674 45.27 173.347 45.4776C182.899 46.6629 192.93 46.0549 202.523 45.9638C228.577 45.7165 254.318 41.6688 280.323 40.5543C287.103 40.2637 293.856 39.927 300.624 39.4602C303.348 39.2724 299.587 40.2936 299.044 40.5543C280.202 49.5985 261.603 50.3401 240.572 50.3401" stroke="black" stroke-width="3" stroke-linecap="round"/>
</svg>
