<svg width="38" height="34" viewBox="0 0 38 34" fill="none" xmlns="http://www.w3.org/2000/svg">
<g clip-path="url(#clip0_816_837)">
<path fill-rule="evenodd" clip-rule="evenodd" d="M31.5 0.333008C34.9518 0.333008 37.75 3.13124 37.75 6.58301V27.4163C37.75 30.8682 34.9518 33.6663 31.5 33.6663H6.5C3.04813 33.6663 0.25 30.8682 0.25 27.4163V6.58301C0.25 3.13124 3.04813 0.333008 6.5 0.333008H31.5ZM33.5833 6.58301C33.5833 5.43242 32.6506 4.49967 31.5 4.49967H25.25V29.4997H31.5C32.6506 29.4997 33.5833 28.567 33.5833 27.4163V6.58301ZM21.0833 29.4997H6.5C5.34938 29.4997 4.41667 28.567 4.41667 27.4163V6.58301C4.41667 5.43242 5.34938 4.49967 6.5 4.49967H21.0833V29.4997Z" fill="black"/>
<path d="M33.5833 6.58301C33.5833 5.43242 32.6506 4.49967 31.5 4.49967H25.25V29.4997H31.5C32.6506 29.4997 33.5833 28.567 33.5833 27.4163V6.58301Z" fill="#03985C"/>
</g>
<defs>
<clipPath id="clip0_816_837">
<rect width="38" height="34" fill="white" transform="matrix(-1 0 0 1 38 0)"/>
</clipPath>
</defs>
</svg>
