<svg width="38" height="34" viewBox="0 0 38 34" fill="none" xmlns="http://www.w3.org/2000/svg">
<g clip-path="url(#clip0_816_833)">
<path fill-rule="evenodd" clip-rule="evenodd" d="M6.5 0.333008C3.04823 0.333008 0.25 3.13124 0.25 6.58301V27.4163C0.25 30.8682 3.04823 33.6663 6.5 33.6663H31.5C34.9519 33.6663 37.75 30.8682 37.75 27.4163V6.58301C37.75 3.13124 34.9519 0.333008 31.5 0.333008H6.5ZM4.41667 6.58301C4.41667 5.43242 5.34942 4.49967 6.5 4.49967H12.75V29.4997H6.5C5.34942 29.4997 4.41667 28.567 4.41667 27.4163V6.58301ZM16.9167 29.4997H31.5C32.6506 29.4997 33.5833 28.567 33.5833 27.4163V6.58301C33.5833 5.43242 32.6506 4.49967 31.5 4.49967H16.9167V29.4997Z" fill="black"/>
<path d="M4.41667 6.58301C4.41667 5.43242 5.34942 4.49967 6.5 4.49967H12.75V29.4997H6.5C5.34942 29.4997 4.41667 28.567 4.41667 27.4163V6.58301Z" fill="#03985C"/>
</g>
<defs>
<clipPath id="clip0_816_833">
<rect width="38" height="34" fill="white"/>
</clipPath>
</defs>
</svg>
